<?xml version="1.0" encoding="UTF-8"?>
<svg id="Layer_1" data-name="Layer 1" xmlns="http://www.w3.org/2000/svg" xmlns:xlink="http://www.w3.org/1999/xlink" viewBox="0 0 16 16">
  <defs>
    <style>
      .cls-1 {
        fill: none;
      }

      .cls-2 {
        filter: url(#drop-shadow-1);
      }

      .cls-3 {
        fill: #fe771c;
        fill-rule: evenodd;
      }

      .cls-4 {
        fill: #fff;
      }

      .cls-5 {
        fill: #121212;
      }
    </style>
    <filter id="drop-shadow-1" x="-49" y="-49" width="134" height="134" filterUnits="userSpaceOnUse">
      <feOffset dx="10" dy="10"/>
      <feGaussianBlur result="blur" stdDeviation="20"/>
      <feFlood flood-color="#000" flood-opacity=".5"/>
      <feComposite in2="blur" operator="in"/>
      <feComposite in="SourceGraphic"/>
    </filter>
  </defs>
  <g class="cls-2">
    <rect class="cls-1" x="1" y="1" width="14" height="14"/>
    <path class="cls-4" d="M2.19,10.99c-.29-.59-.45-1.25-.44-1.91,0-2.38,1.94-4.32,4.32-4.32h4.55l.43-1.56,3.52-.92-.58,2.13-1.38.36-2.36,8.62h-4.17c-.63,0-1.26-.14-1.83-.41l-2.79.73.75-2.74h0Z"/>
    <path class="cls-4" d="M11.56,3.73l-2.3,8.4h-3.21c-.55,0-1.08-.15-1.55-.43l-.11-.07-1.15.3.31-1.13-.07-.12c-.31-.49-.47-1.05-.47-1.62,0-1.68,1.37-3.05,3.05-3.05h4.23l.17-.62h-4.4c-2.02,0-3.67,1.65-3.67,3.67,0,.65.17,1.28.49,1.84l-.52,1.9,1.95-.51c.54.29,1.14.45,1.75.45h3.68l2.33-8.51,1.38-.36.19-.69-2.08.54h0Z"/>
    <path class="cls-3" d="M5.92,9.7c.4,0,.73.33.73.73s-.33.73-.73.73-.73-.33-.73-.73.33-.73.73-.73h0ZM8.22,11.49c.19.04.26-.09.33-.28.23-.68.3-1.43.34-2.14,0-.04.08-1.06-.2-.95-.15.05-.51.97-.95.75-.85-.42-1.02-1.45-1.69-2.04-.09-.07-.18-.13-.29-.16-.53-.15-.98.28-1.22.71-.33.59-.32,1.33-.13,1.97.09.29.23.14.37-.07.06-.09.12-.18.2-.25.21-.19.43-.3.7-.38.3-.07.67-.05.85.05.24.11.68.56.81.87.23.54.24,1.67.9,1.92h0Z"/>
    <path class="cls-5" d="M11.56,3.73l-2.3,8.4h-3.21c-.55,0-1.08-.15-1.55-.43l-.11-.07-1.15.3.31-1.13-.07-.12c-.31-.49-.47-1.05-.47-1.62,0-1.68,1.37-3.05,3.05-3.05h4.23l.17-.62h-4.4c-2.02,0-3.67,1.65-3.67,3.67,0,.65.17,1.28.49,1.84l-.52,1.9,1.95-.51c.54.29,1.14.45,1.75.45h3.68l2.33-8.51,1.38-.36.19-.69-2.08.54h0Z"/>
  </g>
</svg>
